<svg width="24" height="26" viewBox="0 0 24 26" fill="none" xmlns="http://www.w3.org/2000/svg">
<path d="M2 4.0481H8C9.06087 4.0481 10.0783 4.48543 10.8284 5.26388C11.5786 6.04233 12 7.09814 12 8.19904V22.7273C12 21.9017 11.6839 21.1098 11.1213 20.526C10.5587 19.9421 9.79565 19.6141 9 19.6141H2V4.0481Z" stroke="#7B7B7B" stroke-width="2" stroke-linecap="round" stroke-linejoin="round"/>
<path d="M22 4.0481H16C14.9391 4.0481 13.9217 4.48543 13.1716 5.26388C12.4214 6.04233 12 7.09814 12 8.19904V22.7273C12 21.9017 12.3161 21.1098 12.8787 20.526C13.4413 19.9421 14.2044 19.6141 15 19.6141H22V4.0481Z" stroke="#7B7B7B" stroke-width="2" stroke-linecap="round" stroke-linejoin="round"/>
</svg>
