<svg width="24" height="26" viewBox="0 0 24 26" fill="none" xmlns="http://www.w3.org/2000/svg">
<path d="M16 4.79071H18C18.5304 4.79071 19.0391 5.00938 19.4142 5.3986C19.7893 5.78783 20 6.31573 20 6.86618V21.3945C20 21.9449 19.7893 22.4728 19.4142 22.8621C19.0391 23.2513 18.5304 23.47 18 23.47H6C5.46957 23.47 4.96086 23.2513 4.58579 22.8621C4.21071 22.4728 4 21.9449 4 21.3945V6.86618C4 6.31573 4.21071 5.78783 4.58579 5.3986C4.96086 5.00938 5.46957 4.79071 6 4.79071H8" stroke="#7B7B7B" stroke-width="2" stroke-linecap="round" stroke-linejoin="round"/>
<path d="M15 2.71527H9C8.44772 2.71527 8 3.17988 8 3.75301V5.82848C8 6.4016 8.44772 6.86621 9 6.86621H15C15.5523 6.86621 16 6.4016 16 5.82848V3.75301C16 3.17988 15.5523 2.71527 15 2.71527Z" stroke="#7B7B7B" stroke-width="2" stroke-linecap="round" stroke-linejoin="round"/>
</svg>
