<svg width="24" height="26" viewBox="0 0 24 26" fill="none" xmlns="http://www.w3.org/2000/svg">
<path d="M20.84 5.65507C20.3292 5.12479 19.7228 4.70414 19.0554 4.41714C18.3879 4.13014 17.6725 3.98242 16.95 3.98242C16.2275 3.98242 15.5121 4.13014 14.8446 4.41714C14.1772 4.70414 13.5708 5.12479 13.06 5.65507L12 6.75507L10.94 5.65507C9.9083 4.58445 8.50903 3.98298 7.05 3.98298C5.59096 3.98298 4.19169 4.58445 3.16 5.65507C2.1283 6.7257 1.54871 8.17777 1.54871 9.69186C1.54871 11.206 2.1283 12.658 3.16 13.7287L4.22 14.8287L12 22.9022L19.78 14.8287L20.84 13.7287C21.351 13.1986 21.7563 12.5693 22.0329 11.8767C22.3095 11.184 22.4518 10.4416 22.4518 9.69186C22.4518 8.94211 22.3095 8.19971 22.0329 7.50706C21.7563 6.81441 21.351 6.1851 20.84 5.65507V5.65507Z" stroke="#7B7B7B" stroke-width="2" stroke-linecap="round" stroke-linejoin="round"/>
</svg>
