<svg width="24" height="24" viewBox="0 0 24 24" fill="none" xmlns="http://www.w3.org/2000/svg">
<path d="M23 4.50002L19.7255 1.22546" stroke="#7B7B7B" stroke-width="2" stroke-linecap="round" stroke-linejoin="round"/>
<path d="M6.35764 15.5296L8.4223 17.5937L8.95176 17.0641L6.8871 15L6.35764 15.5296Z" stroke="#7B7B7B" stroke-width="2" stroke-linecap="round" stroke-linejoin="round"/>
<path d="M21 3L19 5" stroke="#7B7B7B" stroke-width="2" stroke-linecap="round" stroke-linejoin="round"/>
<path d="M8 16L2 22" stroke="#7B7B7B" stroke-width="2" stroke-linecap="round" stroke-linejoin="round"/>
<path d="M12 9.32256L10.6667 8.13479" stroke="#7B7B7B" stroke-width="2" stroke-linecap="round" stroke-linejoin="round"/>
<path d="M9.33336 11.9271L8.00002 10.7393" stroke="#7B7B7B" stroke-width="2" stroke-linecap="round" stroke-linejoin="round"/>
<path d="M20.2362 6.88546L21.0317 7.68095C21.2427 7.89193 21.3209 8.21843 21.249 8.58863C21.1772 8.95883 20.9613 9.3424 20.6487 9.65496L12.3991 17.9045C12.0866 18.2171 11.703 18.433 11.3328 18.5049C10.9626 18.5767 10.6361 18.4985 10.4251 18.2876L5.65215 13.5146C5.44117 13.3036 5.363 12.9771 5.43483 12.6069C5.50666 12.2367 5.72261 11.8531 6.03517 11.5406L14.2847 3.291C14.5973 2.97844 14.9809 2.76249 15.3511 2.69066C15.7213 2.61883 16.0478 2.697 16.2588 2.90798L20.2362 6.88546Z" stroke="#7B7B7B" stroke-width="2" stroke-linecap="round" stroke-linejoin="round"/>
</svg>
